<svg xmlns="http://www.w3.org/2000/svg" width="760" height="620" viewBox="0 0 760 620"><title>FeedbackLens</title><desc>User feedback → product opportunities</desc><rect width="760" height="620" rx="30" fill="#19191c"/><g font-family="-apple-system,BlinkMacSystemFont,Helvetica Neue,Arial,sans-serif"><text x="44" y="61" fill="#a4a4aa" font-family="Menlo,monospace" font-size="15" letter-spacing="1.8">01 / PRODUCT DISCOVERY</text><g transform="translate(80 28)"><g fill="none" stroke="#3a3a40" stroke-width="2"><path d="M66 100H152M66 140H164M66 180H144"/><rect x="174" y="70" width="112" height="142" rx="20"/><path d="M200 104h60M200 130h43M200 156h52M200 182h31"/><path d="M306 141h50m-10-10 10 10-10 10"/></g><g fill="#f5f5f7"><rect x="380" y="155" width="23" height="47" rx="7" opacity=".25"/><rect x="418" y="124" width="23" height="78" rx="7" opacity=".5"/><rect x="456" y="85" width="23" height="117" rx="7"/></g></g><text x="44" y="322" fill="#f5f5f7" font-size="28" font-weight="600" letter-spacing="-.7">FeedbackLens</text><g fill="#f5f5f7" font-size="48" font-weight="600" letter-spacing="-1.7"><text x="44" y="391">Less noise.</text><text x="44" y="448">Clearer priorities.</text></g><text x="44" y="504" fill="#a4a4aa" font-size="20">User feedback → product opportunities</text><line x1="44" y1="538" x2="716" y2="538" stroke="#3a3a40"/><text x="44" y="578" fill="#a4a4aa" font-size="18">Explore the project</text><path d="M687 580v-15h15m-16 16 16-16" stroke="#f5f5f7" stroke-width="2.5" fill="none" stroke-linecap="round"/></g></svg>